<svg xmlns="http://www.w3.org/2000/svg" viewBox="0 0 500 500"><ellipse cx="250" cy="344.18" rx="242.5" ry="142" style="fill:#fafafa"/><path d="M150 229.13 31.6 297.5c-2.5 1.45-2.5 3.79 0 5.23l274.71 158.79a14.4 14.4 0 0 0 9.58 1.28c52.14-14.28 92.88-38.61 119-68.28a4.18 4.18 0 0 0-1.14-6.6L159.09 229.13a10 10 0 0 0-9.09 0z" style="fill:#ebebeb"/><ellipse cx="113.75" cy="376.45" rx="35.13" ry="20.28" style="fill:#ebebeb"/><path d="M396.91 275c-13 7.5-13 19.66 0 27.16s34 7.5 47 0 13-19.66 0-27.16-34.02-7.5-47 0z" style="fill:#ebebeb"/><path d="m438 211.42-2.62-1.33L422.87 238v-33.51H418v27l-12.75-23.95-2.49 1.55 15.24 28v50.82a1.2 1.2 0 0 0 .72 1 3.79 3.79 0 0 0 3.47 0 1.21 1.21 0 0 0 .71-1V244.5z" style="fill:#e0e0e0"/><circle cx="446.63" cy="178.73" r="37.63" transform="rotate(-76.72 446.616 178.734)" style="fill:#f0f0f0"/><path d="M458.43 169.11c4.85-15.29 10-21.27 6.74-23.13a37.63 37.63 0 1 0 10.5 56.7c-11.15 3.26-23.53-13.75-17.24-33.57z" style="fill:#e0e0e0"/><path d="M413.8 189.38a26.45 26.45 0 1 1-26.45-26.45 26.45 26.45 0 0 1 26.45 26.45z" style="fill:#f0f0f0"/><path d="M387.35 162.93a26.37 26.37 0 0 0-15.46 5c-.72 16.16 13 31.92 9.17 37.21s-13.28 2.05-16.57-2.45a26.45 26.45 0 1 0 22.86-39.75z" style="fill:#e0e0e0"/><path d="M469 160.86a48.53 48.53 0 1 1-48.53-48.52A48.53 48.53 0 0 1 469 160.86z" style="fill:#f0f0f0"/><path d="M467.66 172a48.52 48.52 0 1 1-82.74-44.16c3.37-3.62 3.58-3.77.26-.27a49.33 49.33 0 0 0-1.28 11.08A48.51 48.51 0 0 0 467.66 172z" style="fill:#ebebeb"/><g><path d="M82.75 40 75 44.47a8.89 8.89 0 0 0 .07-1V41.2c0-4-2.81-5.6-6.26-3.61a12.09 12.09 0 0 0-3.73 3.59c-.57-5-4.51-6.89-9.29-4.13-5.17 3-9.36 10.25-9.36 16.22v3.35a8.8 8.8 0 0 0 .79 3.89l-6.42 3.71a7.67 7.67 0 0 0-3.47 6c0 2.21 1.55 3.11 3.47 2L82.75 48a7.68 7.68 0 0 0 3.48-6c0-2.21-1.56-3.1-3.48-2zM130 56.27l-5.84 3.37a6.78 6.78 0 0 0 .05-.77v-1.69c0-3-2.12-4.24-4.73-2.73a9.25 9.25 0 0 0-2.81 2.71c-.43-3.79-3.4-5.2-7-3.12a15.65 15.65 0 0 0-7.07 12.24v2.53a6.74 6.74 0 0 0 .6 2.94l-4.85 2.8a5.8 5.8 0 0 0-2.62 4.54c0 1.67 1.17 2.35 2.62 1.51L130 62.32a5.78 5.78 0 0 0 2.62-4.54c-.03-1.67-1.2-2.35-2.62-1.51z" style="fill:#f0f0f0"/></g><g><path d="M109.18 302.67a22.14 22.14 0 0 1-1.73 9.14A11.33 11.33 0 0 1 103 317l-.15.09-11.14 6.42-4.52-9-.31-.6a36.69 36.69 0 0 1-6.75-6.87c-.5-.63-1-1.28-1.42-1.95a49.52 49.52 0 0 1-6.42-13.12 39.93 39.93 0 0 1-1.94-10.91l-.08-.15-1.14-2.26L66.7 274l-1-2 9.93-5.75.67-.39.28-.16a10 10 0 0 1 5-1.3 16.43 16.43 0 0 1 8.11 2.46c10.78 6.27 19.49 22.28 19.49 35.81z" style="fill:#263238"/><path d="M59 286.74c0 11.67 6.48 25.18 15.15 32.65a28.58 28.58 0 0 0 4.26 3.05c10.75 6.22 19.47.27 19.46-13.27 0-10.22-5-21.87-12-29.62l-.06-.06a31.31 31.31 0 0 0-7.36-6.06C67.66 267.27 59 273.21 59 286.74z" style="fill:#37474f"/><path d="M78.4 281.64c-6.83-3.95-12.38.16-12.38 9.19s5.55 19.54 12.38 23.49 12.39-.17 12.39-9.19-5.55-19.54-12.39-23.49z" style="fill:#455a64"/><path d="M59 286.74c0 11.67 6.48 25.18 15.15 32.65a55.11 55.11 0 0 1-12.34-23.88c-1.65-7.8-1-19 5.67-21.83s15.54 3.13 18.33 5.85a31.31 31.31 0 0 0-7.36-6.06c-10.79-6.2-19.45-.26-19.45 13.27z" style="fill:#455a64"/><path d="M78.4 289.5c-3.55-2.05-6.42.08-6.42 4.77s2.87 10.14 6.42 12.19 6.43-.09 6.43-4.77S82 291.55 78.4 289.5z" style="fill:#e0e0e0"/><path d="M76.35 289.41a5.28 5.28 0 0 0-1.41-.57c-1.78.48-3 2.43-3 5.43a16.19 16.19 0 0 0 3.65 9.73 7.32 7.32 0 0 0 .76.52c3.16 1.82 5.71-.07 5.71-4.24s-2.55-9.04-5.71-10.87z" style="fill:#f5f5f5"/><path style="fill:#455a64" d="M64.83 259.26v4.72l138.91 80.2v-4.72l-138.91-80.2z"/><path d="m107.7 288.74-7.59-4.39v25.79c0 1.39 1 1.95 2.17 1.25l6-3.45-.57-.34z" style="fill:#0ecaff"/><path d="m107.7 288.74-7.59-4.39v25.79c0 1.39 1 1.95 2.17 1.25l6-3.45-.57-.34z" style="fill:#fff;opacity:.7000000000000001"/><path style="fill:#37474f" d="M107.7 288.74v14.15l34.75 20.06V308.8l-34.75-20.06z"/><path style="fill:#263238" d="m142.45 322.95-34.75-20.06-2.02 1.2 36.77 21.2v-2.34z"/><path style="fill:#455a64" d="M105.69 306.45v-2.35l36.76 21.19v2.38l-36.76-21.22z"/><path style="fill:#37474f" d="M142.45 304.08v28.31l28.6 16.51v-28.31l-28.6-16.51zM171.05 320.59v28.31l28.6 16.51v-28.3l-28.6-16.52z"/><path style="fill:#263238" d="m199.65 365.41 8.17-4.72V337.1l-4.08 2.36-4.09-2.35v28.3zM170.02 348.3V320l2.04 1.18v28.3l-2.04-1.18z"/><path style="fill:#e0e0e0" d="M184.32 337.69v-4.72l2.04 1.18.01 4.72-2.05-1.18zM155.72 321.19v-4.72l2.04 1.17.01 4.73-2.05-1.18z"/><path style="opacity:.2" d="M140.36 302.87v18.88l-1.99 1.19v2.37l4.08 2.36v-23.59l-2.09-1.21z"/><path style="fill:#0ecaff" d="m56.66 254.55 147.08 84.91.01-9.4-147.09-84.91v9.4z"/><g style="opacity:.6000000000000001"><path style="fill:#fff" d="m56.66 254.55 147.08 84.91.01-9.4-147.09-84.91v9.4z"/></g><path style="fill:#0ecaff" d="m203.74 339.46 4.08-2.36v-9.43l-4.08 2.36v9.43z"/><g style="opacity:.5"><path style="fill:#fff" d="m203.74 339.46 4.08-2.36v-9.43l-4.08 2.36v9.43z"/></g><path d="m203.74 339.46 4.08-2.36v-9.43l-4.08 2.36v9.43z" style="opacity:.1"/><path style="fill:#0ecaff" d="M158.8 186.14 56.66 245.15l147.08 84.88 102.14-58.97-147.08-84.92z"/><g style="opacity:.8"><path style="fill:#fff" d="M158.8 186.14 56.66 245.15l147.08 84.88 102.14-58.97-147.08-84.92z"/></g><g><path style="fill:#455a64" d="m68.91 129.53 130.74 75.48 93.97-54.25-130.74-75.48-93.97 54.25z"/><path style="fill:#37474f" d="M199.65 322.95V205.01L68.91 129.53v117.94l130.74 75.48z"/><path style="fill:#263238" d="m199.65 322.95 93.97-54.25V150.76l-93.97 54.25v117.94z"/><path d="M161.91 286.74a5.68 5.68 0 0 1-2.42-4.59v-7l4.92 2.89.32-.06v6.75a2.35 2.35 0 0 1-1 2.13 1.61 1.61 0 0 1-.77.2 2.23 2.23 0 0 1-1.05-.32zm.55-7.56-.36 2.46h-1.82v.51a5 5 0 0 0 2 3.91 1.08 1.08 0 0 0 1.06.11 1.59 1.59 0 0 0 .57-1.44v-5.82zm-.7-.68 1.45-.26-2.93-1.73v4.34h1.14z" style="fill:#e0e0e0"/><path d="M162.11 292.07a.39.39 0 0 0 .39-.4v-5.27a.39.39 0 1 0-.78 0v5.27a.39.39 0 0 0 .39.4z" style="fill:#e0e0e0"/><path d="M164.4 293.39a.38.38 0 0 0 .34-.2.39.39 0 0 0-.14-.54L160 290a.37.37 0 0 0-.53.14.39.39 0 0 0 .14.54l4.59 2.65a.45.45 0 0 0 .2.06zM178.15 301.54a.81.81 0 0 0 .43-.11 1 1 0 0 0 .47-.95v-1.08a.4.4 0 0 0-.79 0v1.08c0 .16 0 .25-.08.27a.34.34 0 0 1-.25-.07 2.33 2.33 0 0 1-.74-1.79v-7a.39.39 0 0 0-.39-.4.4.4 0 0 0-.4.4v7a3 3 0 0 0 1.12 2.47 1.29 1.29 0 0 0 .63.18z" style="fill:#e0e0e0"/><path d="M171.81 289.35v-.23a3.34 3.34 0 0 1 5.44-3.14 11.15 11.15 0 0 1 5.05 8.75v.68zm2-3a2.94 2.94 0 0 0-1.22 2.57l8.88 5.13a10.43 10.43 0 0 0-4.62-7.36 4.06 4.06 0 0 0-2-.61 2.15 2.15 0 0 0-1.03.24zM194 310.4a.39.39 0 0 0 .39-.4v-13.43a.39.39 0 0 0-.39-.4.4.4 0 0 0-.4.4V310a.4.4 0 0 0 .4.4z" style="fill:#e0e0e0"/><path d="M195.17 299.63a.41.41 0 0 0 .16 0 .39.39 0 0 0 .2-.52l-1.4-3.25-1.57 1.82a.39.39 0 0 0 .6.51l.74-.86.91 2.09a.39.39 0 0 0 .36.21zM190.37 308.32a.4.4 0 0 0 .39-.4v-13.43a.4.4 0 1 0-.79 0v13.43a.4.4 0 0 0 .4.4z" style="fill:#e0e0e0"/><path d="M191.52 297.55a.45.45 0 0 0 .16 0 .39.39 0 0 0 .2-.52l-1.4-3.25-1.57 1.81a.4.4 0 0 0 .6.52l.74-.86.91 2.09a.39.39 0 0 0 .36.21z" style="fill:#e0e0e0"/><path d="M111.07 239.24v21.63c0 .83-.59 1.17-1.31.75L76 242.12a2.86 2.86 0 0 1-1.31-2.26v-21.64c0-.84.59-1.17 1.31-.76L109.77 237a2.89 2.89 0 0 1 1.3 2.24z" style="fill:#fafafa"/><path style="fill:#455a64" d="m76.78 220.56 1.09.63v19.66l-1.09-.63v-19.66zM81.22 223.12l1.88 1.11v19.66l-1.88-1.1v-19.67zM85.66 225.68l1.09.63v19.67l-1.09-.63v-19.67zM89.01 227.58l2.18 1.3v19.66l-2.18-1.29v-19.67zM94.54 230.81l1.09.63v19.66l-1.09-.63v-19.66zM97.73 232.61l2.34 1.39v19.66l-2.34-1.38v-19.67zM103.42 235.93l1.09.63-.01 19.67-1.08-.64v-19.66zM105.95 237.37l.54.32v19.66l-.54-.31v-19.67zM101.39 234.86l.55.31v19.67l-.55-.32v-19.66zM92.45 229.62l.55.32v19.66l-.55-.31v-19.67zM87.55 226.81l.55.32v19.66l-.55-.31v-19.67zM84.04 224.87l.54.32v19.66l-.55-.32.01-19.66zM79.27 221.97l.54.32v19.66l-.54-.31v-19.67zM107.86 238.49l1.08.63v19.67l-1.09-.63.01-19.67z"/><g><path style="fill:#0ecaff" d="M142.45 289.93V171.99l-16.34-9.44v117.94l16.34 9.44z"/><path d="M142.45 289.93V171.99l-16.34-9.44v117.94l16.34 9.44z" style="opacity:.30000000000000004"/><path style="fill:#0ecaff" d="M238.48 300.54V182.6l16.34-9.44V291.1l-16.34 9.44z"/><path d="M238.48 300.54V182.6l16.34-9.44V291.1l-16.34 9.44z" style="opacity:.45"/><path style="fill:#0ecaff" d="m126.11 162.55 93.97-54.25 16.34 9.43-93.97 54.26-16.34-9.44z"/><path d="m126.11 162.55 93.97-54.25 16.34 9.43-93.97 54.26-16.34-9.44z" style="opacity:.15"/><path d="m161.95 141.86 16.42 9.39 2.9-1.67-16.34-9.44-2.98 1.72z" style="opacity:.15"/><path style="fill:#0ecaff" d="M254.82 173.16 124.06 97.69l-16.34 9.43 130.76 75.48 16.34-9.44z"/><path d="M254.82 173.16 124.06 97.69l-16.34 9.43 130.76 75.48 16.34-9.44z" style="opacity:.15"/><path d="M188.44 139s23.2 20.26 61.09 15.87c0 0-15.46 11-35.15 8.65 0 0 2.48 10.9 17.81 16.8 0 0-43.51-.64-51.13-36.37z" style="opacity:.2"/><path d="M187.47 136.91s23.2 19.26 61.09 14.87c0 0-16.08 10.53-35.77 8.15 0 0 2.82 7.18 19.4 15.93 0 0-41.41.37-52.11-34z" style="fill:#0ecaff"/><path d="M187.47 136.91s23.2 19.26 61.09 14.87c0 0-16.08 10.53-35.77 8.15 0 0 2.82 7.18 19.4 15.93 0 0-41.41.37-52.11-34z" style="fill:#fff;opacity:.25"/><path d="M185.84 146.62c8.16 2.17 16.25-1.35 16.25-1.35l-1.52-.67-.23-.11-1.35-.63-.3-.15-1.23-.61-.31-.15-1.12-.59-.31-.17-1-.56a2.69 2.69 0 0 0-.29-.16l-.94-.55-.26-.15-.86-.52-.24-.15-.77-.47-.22-.15-.67-.44-.2-.13-.58-.39-.18-.12-.48-.34-.16-.11-.39-.29-.13-.1-.3-.21-.13-.11-.17-.13-.12-.1h-.07l-.06-.05-2.42 1.62-5 3.32c10.7 34.38 52.1 34 52.11 34-21.31-1.03-43.69-17.2-46.35-29.28z" style="opacity:.1"/><path d="M238.91 111.71s-4.61-5.38-18.74-2.95c-8.53 1.47-23 11.41-30.16 28-.91 2.1-2.94 2.8-4 4.21a8.14 8.14 0 0 1-.82.89h-4.47c0-15.46 8.67-31.07 16.88-40.1s21.71-13.45 31.35-13.82a21.75 21.75 0 0 1 9.94 1.91c2.6 7.34 3.68 14.59.02 21.86z" style="fill:#0ecaff"/><path d="M238.91 111.71s-4.61-5.38-18.74-2.95c-8.53 1.47-23 11.41-30.16 28-.91 2.1-2.94 2.8-4 4.21a8.14 8.14 0 0 1-.82.89h-4.47c0-15.46 8.67-31.07 16.88-40.1s21.71-13.45 31.35-13.82a21.75 21.75 0 0 1 9.94 1.91c2.6 7.34 3.68 14.59.02 21.86z" style="fill:#fff;opacity:.5"/><path d="M191 134.64s-8.05-2.72-4.73-15.61a54.93 54.93 0 0 0-5.54 22.83h4.47a8.14 8.14 0 0 0 .82-.89c1.09-1.41 3.12-2.11 4-4.21.29-.76.63-1.43.98-2.12z" style="fill:#0ecaff;opacity:.30000000000000004"/><path d="M191 134.64s-8.05-2.72-4.73-15.61a54.93 54.93 0 0 0-5.54 22.83h4.47a8.14 8.14 0 0 0 .82-.89c1.09-1.41 3.12-2.11 4-4.21.29-.76.63-1.43.98-2.12z" style="opacity:.1"/><path d="M238.91 111.71s.71-17-10-23.77a21.75 21.75 0 0 1 9.94 1.91c2.64 7.34 3.72 14.59.06 21.86z" style="fill:#0ecaff;opacity:.30000000000000004"/><path d="M238.91 111.71s.71-17-10-23.77a21.75 21.75 0 0 1 9.94 1.91c2.64 7.34 3.72 14.59.06 21.86z" style="opacity:.1"/><path d="M230.66 121.62a32.27 32.27 0 0 0 8.25-9.92c3.67-7.27 2.58-14.52 0-21.86 8.29 3.67 13.24 14.44 15.13 23.12 1 4.86 1.12 9.1.3 11.05-2.32 5.47-15.94 27.58-74.22 17.84l.07-6.12c14.54-.88 40.03-5.32 50.47-14.11z" style="fill:#0ecaff"/><path d="M230.66 121.62a32.27 32.27 0 0 0 8.25-9.92c3.67-7.27 2.58-14.52 0-21.86 8.29 3.67 13.24 14.44 15.13 23.12 1 4.86 1.12 9.1.3 11.05-2.32 5.47-15.94 27.58-74.22 17.84l.07-6.12c14.54-.88 40.03-5.32 50.47-14.11z" style="fill:#fff;opacity:.4"/><path d="M174.13 139s-23.2 20.26-61.09 15.87c0 0 15.46 11 35.15 8.65 0 0-2.48 10.9-17.81 16.8 0 0 43.51-.64 51.13-36.37z" style="opacity:.2"/><path d="M175.1 136.91s-23.2 19.26-61.1 14.87c0 0 16.08 10.53 35.77 8.15 0 0-2.82 7.18-19.4 15.93 0 0 41.41.37 52.11-34z" style="fill:#0ecaff"/><path d="M175.1 136.91s-23.2 19.26-61.1 14.87c0 0 16.08 10.53 35.77 8.15 0 0-2.82 7.18-19.4 15.93 0 0 41.41.37 52.11-34z" style="fill:#fff;opacity:.25"/><path d="M176.74 146.62c-8.17 2.17-16.26-1.35-16.26-1.35l1.52-.67.23-.11 1.35-.63.3-.15 1.23-.61.31-.15 1.13-.59.3-.17 1-.56.29-.16.94-.55.26-.15.86-.52.24-.15.77-.47.22-.15.67-.44.2-.13.58-.39.18-.12.49-.34.15-.11.39-.29.13-.1.3-.21.13-.11.17-.13.12-.1h.07l.06-.05 2.42 1.62 5 3.32c-10.7 34.38-52.1 34-52.11 34 21.31-1.03 43.69-17.2 46.36-29.28z" style="opacity:.1"/><path d="M123.67 111.71s4.6-5.38 18.73-2.95c8.53 1.47 23 11.41 30.17 28 .9 2.1 2.93 2.8 4 4.21a8.14 8.14 0 0 0 .82.89h4.47c0-15.46-8.67-31.07-16.88-40.1s-21.71-13.45-31.35-13.82a21.75 21.75 0 0 0-9.94 1.91c-2.61 7.34-3.69 14.59-.02 21.86z" style="fill:#0ecaff"/><path d="M123.67 111.71s4.6-5.38 18.73-2.95c8.53 1.47 23 11.41 30.17 28 .9 2.1 2.93 2.8 4 4.21a8.14 8.14 0 0 0 .82.89h4.47c0-15.46-8.67-31.07-16.88-40.1s-21.71-13.45-31.35-13.82a21.75 21.75 0 0 0-9.94 1.91c-2.61 7.34-3.69 14.59-.02 21.86z" style="fill:#fff;opacity:.5"/><path d="M171.59 134.64s8-2.72 4.73-15.61a54.93 54.93 0 0 1 5.54 22.83h-4.47a8.14 8.14 0 0 1-.82-.89c-1.09-1.41-3.12-2.11-4-4.21-.31-.76-.65-1.43-.98-2.12z" style="fill:#0ecaff;opacity:.30000000000000004"/><path d="M171.59 134.64s8-2.72 4.73-15.61a54.93 54.93 0 0 1 5.54 22.83h-4.47a8.14 8.14 0 0 1-.82-.89c-1.09-1.41-3.12-2.11-4-4.21-.31-.76-.65-1.43-.98-2.12z" style="opacity:.1"/><path d="M123.67 111.71s-.72-17 10-23.77a21.75 21.75 0 0 0-9.94 1.91c-2.65 7.34-3.73 14.59-.06 21.86z" style="fill:#0ecaff;opacity:.30000000000000004"/><path d="M123.67 111.71s-.72-17 10-23.77a21.75 21.75 0 0 0-9.94 1.91c-2.65 7.34-3.73 14.59-.06 21.86z" style="opacity:.1"/><path d="M131.91 121.62a32.27 32.27 0 0 1-8.25-9.92c-3.67-7.27-2.58-14.52 0-21.86-8.3 3.67-13.25 14.44-15.13 23.12-1 4.86-1.13 9.1-.31 11.05 2.32 5.47 15.94 27.58 74.22 17.84l-.06-6.12c-14.54-.88-40.03-5.32-50.47-14.11z" style="fill:#0ecaff"/><path d="M131.91 121.62a32.27 32.27 0 0 1-8.25-9.92c-3.67-7.27-2.58-14.52 0-21.86-8.3 3.67-13.25 14.44-15.13 23.12-1 4.86-1.13 9.1-.31 11.05 2.32 5.47 15.94 27.58 74.22 17.84l-.06-6.12c-14.54-.88-40.03-5.32-50.47-14.11z" style="fill:#fff;opacity:.4"/><path d="M189.26 137.82a3.35 3.35 0 0 0-2-2.72 15.55 15.55 0 0 0-6-.87 15.08 15.08 0 0 0-6.18 1 3.29 3.29 0 0 0-1.82 2.62c-.21 1.84-.34 4.94.87 6.69a10.65 10.65 0 0 0 7.15 2.57 10.48 10.48 0 0 0 7.11-2.57c1.2-1.79 1.08-4.88.87-6.72z" style="fill:#0ecaff"/><path d="M189.26 137.82a3.35 3.35 0 0 0-2-2.72 15.55 15.55 0 0 0-6-.87 15.08 15.08 0 0 0-6.18 1 3.29 3.29 0 0 0-1.82 2.62c-.21 1.84-.34 4.94.87 6.69a10.65 10.65 0 0 0 7.15 2.57 10.48 10.48 0 0 0 7.11-2.57c1.2-1.79 1.08-4.88.87-6.72z" style="fill:#fff;opacity:.5"/><path d="M189.38 140.71c0 .72-.8 1.87-2.36 3a10 10 0 0 1-8.74.62 7.26 7.26 0 0 1-5.1-5.64c-.14 1.84-.09 4.33.95 5.84a10.65 10.65 0 0 0 7.15 2.57 10.48 10.48 0 0 0 7.11-2.57 7.44 7.44 0 0 0 .99-3.82z" style="fill:#0ecaff;opacity:.30000000000000004"/><path d="M189.38 140.71c0 .72-.8 1.87-2.36 3a10 10 0 0 1-8.74.62 7.26 7.26 0 0 1-5.1-5.64c-.14 1.84-.09 4.33.95 5.84a10.65 10.65 0 0 0 7.15 2.57 10.48 10.48 0 0 0 7.11-2.57 7.44 7.44 0 0 0 .99-3.82z" style="opacity:.1"/></g></g><g><path d="m396.2 250.37 7.52-4.37a1.74 1.74 0 0 1 1.76-.17c.44.26 1.33.8 1.77 1a1.74 1.74 0 0 1 .74 1.61v18.06a5.45 5.45 0 0 1-2.48 4.28L398 275.2a1.75 1.75 0 0 1-1.75.18c-.45-.26-1.34-.81-1.79-1.06a1.75 1.75 0 0 1-.73-1.61v-18.06a5.45 5.45 0 0 1 2.47-4.28z" style="fill:#fafafa"/><path d="M393.72 254.65v18.06a1.74 1.74 0 0 0 .73 1.61c.44.24 1.11.67 1.74 1a1.79 1.79 0 0 1-.67-1.57v-18.04a5 5 0 0 1 .72-2.43l-1.79-1.06a5 5 0 0 0-.73 2.43z" style="fill:#e0e0e0"/><path d="M405.51 270.83 398 275.2c-1.37.79-2.47.15-2.47-1.42v-18.07a5.46 5.46 0 0 1 2.47-4.28l7.52-4.37c1.37-.79 2.48-.15 2.48 1.43v18.06a5.45 5.45 0 0 1-2.49 4.28z" style="fill:#f0f0f0"/><path d="M395.76 285.84a.64.64 0 0 1-.54-.32.62.62 0 0 1 .23-.85l5.24-3a.62.62 0 0 0 .31-.54v-19.81a.63.63 0 1 1 1.25 0v19.78a1.89 1.89 0 0 1-.94 1.63l-5.24 3a.59.59 0 0 1-.31.11z" style="fill:#263238"/><path d="m239.84 388.24 21.25-9.82s-1.66-20-15.69-15.21-5.56 25.03-5.56 25.03z" style="fill:#0ecaff"/><path d="m239.84 388.24 21.25-9.82s-1.66-20-15.69-15.21-5.56 25.03-5.56 25.03z" style="opacity:.5"/><path d="m251.53 385.74-4.53-9.08 10.88-6.3c3.47-2 8.07-1.76 13.13 1.16 10.75 6.21 19.46 22.21 19.46 35.75 0 7.08-2.39 12.09-6.21 14.36l-.16.09-11.15 6.44-4.83-9.58c-9.19-6.98-16.24-20.76-16.59-32.84z" style="fill:#263238"/><path d="M240.18 391.33c0 11.67 6.48 25.18 15.16 32.65a29.35 29.35 0 0 0 4.27 3.07c10.75 6.2 19.47.26 19.46-13.28 0-10.22-5-21.87-12-29.62l-.06-.06a31.06 31.06 0 0 0-7.36-6.06c-10.76-6.17-19.47-.23-19.47 13.3z" style="fill:#37474f"/><path d="M259.64 386.23c-6.84-4-12.38.16-12.38 9.19s5.54 19.54 12.38 23.49 12.38-.17 12.38-9.19-5.54-19.54-12.38-23.49z" style="fill:#455a64"/><path d="M259.64 394.09c-3.55-2-6.42.08-6.42 4.77s2.87 10.14 6.42 12.19 6.43-.09 6.43-4.77-2.88-10.14-6.43-12.19z" style="fill:#e0e0e0"/><path d="M257.59 394a5.42 5.42 0 0 0-1.41-.57c-1.78.48-3 2.43-3 5.43a16.25 16.25 0 0 0 3.6 9.69 8.68 8.68 0 0 0 .77.52c3.16 1.82 5.71-.07 5.71-4.24s-2.51-9.01-5.67-10.83z" style="fill:#f5f5f5"/><path d="M240.18 391.33c0 11.67 6.48 25.18 15.16 32.65A55.11 55.11 0 0 1 243 400.1c-1.65-7.8-1-19 5.67-21.83s15.54 3.13 18.33 5.85a31.06 31.06 0 0 0-7.36-6.06c-10.75-6.2-19.46-.26-19.46 13.27z" style="fill:#455a64"/><path d="m315.32 431.79-19.25-11.12-2.53-1.46-4.85-2.82-2.3-1.34a1.61 1.61 0 0 0 .1-.68 3.88 3.88 0 0 0 .09-1.07c0-14.89-10.45-33-23.41-40.44a28.5 28.5 0 0 0-3.79-1.84c-.57-.22-1.11-.41-1.65-.57-10.24-3.1-17.87 3.12-17.87 15.86v1.93l-32-18.49V223.88l39.77 23 34.72 25.57L298.09 349l12.21 17.94.65.95 7.46 10.94 2.42 29.77.6 6.51.26 2.68.6 6.44.28 3a4.82 4.82 0 0 1-7.25 4.56z" style="fill:#0ecaff"/><path d="m315.32 431.79-19.25-11.12-2.53-1.46-4.85-2.82-2.3-1.34a1.61 1.61 0 0 0 .1-.68 3.88 3.88 0 0 0 .09-1.07c0-14.89-10.45-33-23.41-40.44a28.5 28.5 0 0 0-3.79-1.84c-.57-.22-1.11-.41-1.65-.57-10.24-3.1-17.87 3.12-17.87 15.86v1.93l-32-18.49V223.88l39.77 23 34.72 25.57L298.09 349l12.21 17.94.65.95 7.46 10.94 2.42 29.77.6 6.51.26 2.68.6 6.44.28 3a4.82 4.82 0 0 1-7.25 4.56z" style="opacity:.15"/><path d="M263.2 274.81V322c0 1.74-1.21 2.44-2.71 1.57L221.35 301a6 6 0 0 1-2.72-4.71v-49.67c0-1.73 1.21-2.43 2.72-1.57l23.53 13.59c1.5.87 3.85 2.4 5.24 3.43l10.55 7.75a6.94 6.94 0 0 1 2.53 4.99zM275.78 332.36a10 10 0 0 1-4.53-7.84v-41.73c0-2.89 1.07-4.43 2.39-3.44l2.39 1.79a10.94 10.94 0 0 1 3.6 5.75l9.64 50.1c.39 2-.71 2.75-2.44 1.74z" style="fill:#455a64"/><path d="m265.19 267.57-15.81-11.52c-1.18-.86-3.17-2.16-4.43-2.88L216.9 237a2.06 2.06 0 0 0-2.12-.16 2.1 2.1 0 0 0-.93 1.92V366a5.51 5.51 0 0 0 2.53 4.38L234.79 381a2.48 2.48 0 0 0 1.28.38 1.83 1.83 0 0 0 .8-.17 2 2 0 0 0 .83-.72 2.89 2.89 0 0 0 .44-1.12c.66-3.36 2.7-9.38 9-11.91a16.21 16.21 0 0 1 10.28-.3 27.43 27.43 0 0 1 5.14 1.93c.72.35 1.38.7 2 1a2.1 2.1 0 0 0 2.12.2 1.55 1.55 0 0 0 .51-.51 2.43 2.43 0 0 0 .35-1.36v-96.27a6.26 6.26 0 0 0-2.35-4.58zm.75 101.88a1.12 1.12 0 0 1-.71-.15l-.17-.08a29.43 29.43 0 0 0-8.58-3.36 16.78 16.78 0 0 0-9.72.62c-6.06 2.44-8.43 7.82-9.35 11.48-.12.43-.21.81-.28 1.19a1.42 1.42 0 0 1-.69 1.09 1.22 1.22 0 0 1-1.12-.17l-18.42-10.61a4.49 4.49 0 0 1-2-3.47V238.74a1.15 1.15 0 0 1 .4-1 .68.68 0 0 1 .34-.08 1.52 1.52 0 0 1 .74.24l28.05 16.2c1.24.71 3.18 2 4.33 2.81l15.82 11.53a5.24 5.24 0 0 1 1.9 3.73v96.29a1.11 1.11 0 0 1-.34 1 .48.48 0 0 1-.17.05z" style="opacity:.15"/><path d="M423.19 365.87s-14.51 20.06-46.16 39c-26.27 15.7-54.9 19.37-54.9 19.37l-3.74-45.42 101.06-58.36z" style="fill:#0ecaff"/><path d="M423.19 365.87s-14.51 20.06-46.16 39c-26.27 15.7-54.9 19.37-54.9 19.37l-3.74-45.42 101.06-58.36z" style="opacity:.30000000000000004"/><path d="M419.45 320.44s-14.51 20.07-46.16 39c-26.27 15.7-54.9 19.37-54.9 19.37L298.13 349l101.08-58.35z" style="fill:#0ecaff"/><path d="M425 359.18c-.18-.19-.34-.16-.53.16 0 0-14.51 20.06-46.17 39C352 414 323.39 417.7 323.39 417.7c-12.28 1.12-27.32-11.85-27.32-11.85l2.07-1.51s14.26 10.8 21.51 10.8c6.25 0 28.59-2.84 58.9-20s44-37.91 44-37.91a3.18 3.18 0 0 1 2.45 1.95z" style="fill:#37474f"/><path d="M424.46 359.34s-14.52 20.06-46.17 39c-26.26 15.7-54.9 19.37-54.9 19.37-12.28 1.12-27.32-11.83-27.32-11.83v17.32s15 13 27.32 11.84c0 0 28.64-3.68 54.9-19.37 31.65-18.92 46.17-39 46.17-39 2.54-4.29 1.46-19.9 0-17.33z" style="fill:#455a64"/><path d="M331.77 387.89c4.52-1.07 8.61 2 9.13 6.83a10.06 10.06 0 0 1-7.41 10.7 7.34 7.34 0 0 1-9.12-6.83c-.43-4.84 2.88-9.59 7.4-10.7zM412.19 341.86c-2.75 2.74-4.51 8.61-3.94 13.12s3.15 5.93 5.75 3.17 4.36-8.63 3.94-13.12-3.01-5.91-5.75-3.17z" style="fill:#fff"/><path d="M348.63 382a118.22 118.22 0 0 0 25-11.2c1.25-.73 2.25-.16 2.25 1.28v1.83a5 5 0 0 1-2.25 3.95 118.22 118.22 0 0 1-25 11.2 1.87 1.87 0 0 1-2.52-1.9v-1.83a3.67 3.67 0 0 1 2.52-3.33zM403 352.26v1.83a6.37 6.37 0 0 1-2 4.31 211.79 211.79 0 0 1-18.73 14c-1.2.79-2.19.25-2.19-1.19v-1.81a5.43 5.43 0 0 1 2.19-4 213.28 213.28 0 0 0 18.73-14c1.14-.99 2-.58 2 .86zM348.63 394.78a118.18 118.18 0 0 0 25-11.19c1.25-.73 2.25-.17 2.25 1.28v1.83a5.06 5.06 0 0 1-2.25 3.95 118.69 118.69 0 0 1-25 11.19 1.86 1.86 0 0 1-2.52-1.9v-1.83a3.7 3.7 0 0 1 2.52-3.33zM403 365.09v1.83a6.37 6.37 0 0 1-2 4.3 211.79 211.79 0 0 1-18.73 14c-1.2.8-2.19.26-2.19-1.19v-1.83a5.43 5.43 0 0 1 2.19-4 217.33 217.33 0 0 0 18.73-14c1.14-.97 2-.56 2 .89z" style="fill:#37474f"/><path d="M352.39 330.56a338.46 338.46 0 0 1-41.66 19 2 2 0 0 0-1 3.08l.07.1a4.18 4.18 0 0 0 4 1.67c6.14-1.34 22.74-5.66 43.37-16.75a2.32 2.32 0 0 0 .82-3.41l-1.87-2.78a2.92 2.92 0 0 0-3.73-.91zM395.55 300.64a250.16 250.16 0 0 1-34.38 24.86 2.43 2.43 0 0 0-.77 3.5l1.89 2.8a2.82 2.82 0 0 0 3.72.83c18.7-11.27 28.7-21.19 33.28-26.59a3.69 3.69 0 0 0 .19-4.2l-.51-.76a2.23 2.23 0 0 0-3.42-.44z" style="opacity:.15"/><path d="M399.21 290.6s-16.7 16.79-44.22 32.81-56.85 25.53-56.85 25.53l-15.8-76.57 63.16-36.45 29.05-16.76 8.86-5.14z" style="fill:#455a64"/><path d="m383.41 214-8.86 5.13-29.05 16.79-63.16 36.45 15.8 76.57 1.08-.36.22-.07 1.1-.38.46-.13h.2l.75-.27 1.17-.41 1.16-.42.76-.28 1-.37 3.38-1.28.76-.29c2.71-1.05 5.78-2.27 9.11-3.66l3.28-1.39.53-.23.6-.25c.69-.32 1.41-.62 2.13-.94l.62-.27 1.44-.65 1.65-.74c1.2-.54 2.42-1.11 3.65-1.69s2.47-1.17 3.72-1.77c.94-.46 1.88-.92 2.82-1.4l2.28-1.14.24-.12 2.33-1.21.19-.1 2.05-1.08 1.64-.88q2-1.07 3.89-2.16l2.59-1.48 2.36-1.52c.67-.39 1.33-.8 2-1.2.25-.15.51-.3.75-.46.75-.45 1.51-.92 2.24-1.38l.27-.17 1.07-.68c.47-.3.92-.6 1.39-.89l1.33-.88 1.32-.86c.55-.36 1.1-.72 1.63-1.09 1.09-.74 2.15-1.46 3.19-2.19l.21-.15 1.2-.83c1.58-1.12 3.1-2.22 4.54-3.28l1.08-.81 1-.78 1-.78c.68-.51 1.33-1 2-1.51l.08-.06.81-.63 1.85-1.48 1.17-.93c.24-.2.47-.4.7-.58s.46-.39.68-.56l.67-.55a.23.23 0 0 1 0-.05L391 298c1.87-1.58 3.44-3 4.68-4.1a5.07 5.07 0 0 1 .5-.45l.1-.1.52-.48c1.47-1.35 2.27-2.15 2.38-2.26zm-34.05 107a.13.13 0 0 1 0 .06 3.73 3.73 0 0 1-.09.46v.13c-.05.12-.09.25-.14.37a1.11 1.11 0 0 1-.07.16 2.39 2.39 0 0 1-.2.43 4.13 4.13 0 0 1-1.06 1.25 2.39 2.39 0 0 1-.46.29c-3.72 2-7.44 3.94-11.07 5.71l-1.91.94q-2.29 1.09-4.53 2.12l-2.08 1-3.56 1.58c-.59.27-1.17.52-1.74.76l-1.69.73c-2.24 1-4.38 1.84-6.4 2.66-1.07.44-2.12.85-3.12 1.25l-1.47.57c-2.41.93-4.53 1.73-6.32 2.38a2.6 2.6 0 0 1-3.22-1.09 3.33 3.33 0 0 1-.33-.9l-9.72-48.42a4.61 4.61 0 0 1 2.06-4.6l41-23.67a2.21 2.21 0 0 1 3.43 1.49l9.71 40.54 2.94 12.28.05.2v.15a.47.47 0 0 1 0 .17.88.88 0 0 1 0 .17 2.11 2.11 0 0 1 0 .36 2.92 2.92 0 0 1-.01.47zm36.12-22.48-.72.61c-2.39 1.93-5.11 4-8.1 6.27-1 .76-2.07 1.52-3.16 2.3l-1.17.85a171.14 171.14 0 0 1-5 3.45l-1.7 1.14c-.57.39-1.16.77-1.75 1.15s-1.19.79-1.79 1.17c-2.15 1.39-4.38 2.78-6.68 4.15a2.16 2.16 0 0 1-3.39-1.46l-.07-.3-2.95-12.24-9.62-40.44a4.46 4.46 0 0 1 2-4.61l7.77-4.47 31.63-18.3 1.41-.8.12-.06a2.1 2.1 0 0 1 3.19 1.56l9.67 48a6.07 6.07 0 0 1-.93 4.23c-.11.17-.23.34-.35.49a4.68 4.68 0 0 1-.38.39l-.51.46c-.23.22-.47.43-.71.64l-2.16 1.88c-.77.67-1.62 1.39-2.52 2.14l-1.89 1.56-.23.18z" style="fill:#0ecaff"/><path d="m383.41 214-8.86 5.13-29.05 16.79-63.16 36.45 15.8 76.57 1.08-.36.22-.07 1.1-.38.46-.13h.2l.75-.27 1.17-.41 1.16-.42.76-.28 1-.37 3.38-1.28.76-.29c2.71-1.05 5.78-2.27 9.11-3.66l3.28-1.39.53-.23.6-.25c.69-.32 1.41-.62 2.13-.94l.62-.27 1.44-.65 1.65-.74c1.2-.54 2.42-1.11 3.65-1.69s2.47-1.17 3.72-1.77c.94-.46 1.88-.92 2.82-1.4l2.28-1.14.24-.12 2.33-1.21.19-.1 2.05-1.08 1.64-.88q2-1.07 3.89-2.16l2.59-1.48 2.36-1.52c.67-.39 1.33-.8 2-1.2.25-.15.51-.3.75-.46.75-.45 1.51-.92 2.24-1.38l.27-.17 1.07-.68c.47-.3.92-.6 1.39-.89l1.33-.88 1.32-.86c.55-.36 1.1-.72 1.63-1.09 1.09-.74 2.15-1.46 3.19-2.19l.21-.15 1.2-.83c1.58-1.12 3.1-2.22 4.54-3.28l1.08-.81 1-.78 1-.78c.68-.51 1.33-1 2-1.51l.08-.06.81-.63 1.85-1.48 1.17-.93c.24-.2.47-.4.7-.58s.46-.39.68-.56l.67-.55a.23.23 0 0 1 0-.05L391 298c1.87-1.58 3.44-3 4.68-4.1a5.07 5.07 0 0 1 .5-.45l.1-.1.52-.48c1.47-1.35 2.27-2.15 2.38-2.26zm-34.05 107a.13.13 0 0 1 0 .06 3.73 3.73 0 0 1-.09.46v.13c-.05.12-.09.25-.14.37a1.11 1.11 0 0 1-.07.16 2.39 2.39 0 0 1-.2.43 4.13 4.13 0 0 1-1.06 1.25 2.39 2.39 0 0 1-.46.29c-3.72 2-7.44 3.94-11.07 5.71l-1.91.94q-2.29 1.09-4.53 2.12l-2.08 1-3.56 1.58c-.59.27-1.17.52-1.74.76l-1.69.73c-2.24 1-4.38 1.84-6.4 2.66-1.07.44-2.12.85-3.12 1.25l-1.47.57c-2.41.93-4.53 1.73-6.32 2.38a2.6 2.6 0 0 1-3.22-1.09 3.33 3.33 0 0 1-.33-.9l-9.72-48.42a4.61 4.61 0 0 1 2.06-4.6l41-23.67a2.21 2.21 0 0 1 3.43 1.49l9.71 40.54 2.94 12.28.05.2v.15a.47.47 0 0 1 0 .17.88.88 0 0 1 0 .17 2.11 2.11 0 0 1 0 .36 2.92 2.92 0 0 1-.01.47zm36.12-22.48-.72.61c-2.39 1.93-5.11 4-8.1 6.27-1 .76-2.07 1.52-3.16 2.3l-1.17.85a171.14 171.14 0 0 1-5 3.45l-1.7 1.14c-.57.39-1.16.77-1.75 1.15s-1.19.79-1.79 1.17c-2.15 1.39-4.38 2.78-6.68 4.15a2.16 2.16 0 0 1-3.39-1.46l-.07-.3-2.95-12.24-9.62-40.44a4.46 4.46 0 0 1 2-4.61l7.77-4.47 31.63-18.3 1.41-.8.12-.06a2.1 2.1 0 0 1 3.19 1.56l9.67 48a6.07 6.07 0 0 1-.93 4.23c-.11.17-.23.34-.35.49a4.68 4.68 0 0 1-.38.39l-.51.46c-.23.22-.47.43-.71.64l-2.16 1.88c-.77.67-1.62 1.39-2.52 2.14l-1.89 1.56-.23.18z" style="opacity:.30000000000000004"/><path d="m290.71 284.76 91.19-52.67a3.6 3.6 0 0 0 1.62-3.58l-1.66-8.23a1.63 1.63 0 0 0-2.57-1.16l-91.18 52.67a3.59 3.59 0 0 0-1.62 3.59l1.65 8.22a1.63 1.63 0 0 0 2.57 1.16z" style="fill:#455a64"/><path d="M349.3 319.64a4.26 4.26 0 0 1-2 4.51 336.21 336.21 0 0 1-43.9 19.66 2.61 2.61 0 0 1-3.55-2l-.64-3.19c8.86-6.44 30.38-21.81 46.9-31.35a2.12 2.12 0 0 1 .2-.12zM394.28 290.75a4.23 4.23 0 0 1-.76.91 253.46 253.46 0 0 1-38.1 28 2.16 2.16 0 0 1-3.39-1.46l-3-12.57a287.65 287.65 0 0 1 40.07-18.25z" style="fill:#37474f"/><path d="M387.92 280.36 376.87 274a10 10 0 0 1-4.53-7.85V242.7l8.47-4.9 1.4-.81a.56.56 0 0 1 .13-.07l8 41.69c.41 1.97-.69 2.75-2.42 1.75zM364.29 247.35v16.24c0 1.74-1.21 2.44-2.72 1.57l-14.05-8.11 1.67-1z" style="fill:#fff;opacity:.1"/><path style="fill:#0ecaff" d="m383.41 214.01-101.07 58.35-34.74-25.53-39.77-22.96 101.07-58.34 39.77 22.96 34.74 25.52z"/><path d="m272 321.05 7.53-4.37a1.72 1.72 0 0 1 1.75-.17l1.78 1.06a1.72 1.72 0 0 1 .73 1.6v18.06a5.45 5.45 0 0 1-2.47 4.28l-7.53 4.37a1.73 1.73 0 0 1-1.75.18c-.44-.26-1.34-.81-1.78-1.06a1.74 1.74 0 0 1-.73-1.61v-18.06a5.46 5.46 0 0 1 2.47-4.28z" style="fill:#fafafa"/><path d="M269.5 325.33v18.07a1.73 1.73 0 0 0 .73 1.6c.43.24 1.11.67 1.73 1a1.79 1.79 0 0 1-.67-1.57v-18.04A5.05 5.05 0 0 1 272 324l-1.8-1.06a5.08 5.08 0 0 0-.7 2.39z" style="fill:#e0e0e0"/><path d="m281.29 341.51-7.53 4.37c-1.36.79-2.47.15-2.47-1.42V326.4a5.49 5.49 0 0 1 2.47-4.29l7.53-4.37c1.36-.78 2.47-.15 2.47 1.43v18.06a5.45 5.45 0 0 1-2.47 4.28z" style="fill:#f0f0f0"/><path d="M288 344.51a5.61 5.61 0 0 1 2.53 4.4c0 1.62-1.13 2.28-2.53 1.47a5.59 5.59 0 0 1-2.53-4.4c0-1.62 1.13-2.28 2.53-1.47z" style="fill:#37474f"/><path d="M279.1 353a1.91 1.91 0 0 1-.94-.26 1.84 1.84 0 0 1-.93-1.62V332.8a.63.63 0 1 1 1.25 0v18.34a.59.59 0 0 0 .31.54.6.6 0 0 0 .62 0l8.28-4.78a.62.62 0 0 1 .85.23.64.64 0 0 1-.23.86l-8.31 4.77a1.91 1.91 0 0 1-.9.24z" style="fill:#263238"/></g></g><g><path d="M181.26 135.24a1 1 0 0 1-1-.87c-4.65-33.45 19.77-53.86 44.17-61.81 25.46-8.29 43.44 2.75 44.2 3.22a1 1 0 0 1-1.07 1.71c-.18-.11-18-11-42.5-3-23.63 7.7-47.29 27.4-42.8 59.62a1 1 0 0 1-.86 1.14z" style="fill:#37474f"/><path d="m336.11 16.2-64.18 37.05-16.34 33 16.34 14.16 1.84 1.06L338 64.44V17.26zm-66.42 64a8.67 8.67 0 0 1 3.92-6.8 3.56 3.56 0 0 1 1.69-.52 3.61 3.61 0 0 1 .39 1.72 8.7 8.7 0 0 1-3.92 6.8 3.71 3.71 0 0 1-1.71.52 3.62 3.62 0 0 1-.37-1.74z" style="fill:#0ecaff"/><path d="m273.77 54.32-16.34 33 16.34 14.15L338 64.44V17.26zm-.16 28.12c-2.17 1.26-3.92.24-3.92-2.26a8.67 8.67 0 0 1 3.92-6.8c2.16-1.25 3.92-.23 3.92 2.26a8.68 8.68 0 0 1-3.92 6.8z" style="fill:#0ecaff"/><path d="M277.53 75.64a8.68 8.68 0 0 1-3.92 6.8c-1.57.91-2.92.63-3.55-.54a3.51 3.51 0 0 0 1.71-.53 8.66 8.66 0 0 0 3.92-6.79 3.5 3.5 0 0 0-.39-1.7 2 2 0 0 1 1.48.55 3 3 0 0 1 .75 2.21z" style="opacity:.30000000000000004"/><path style="fill:#fff;opacity:.6000000000000001" d="m337.95 17.26-1.84-1.06-64.18 37.05 1.84 1.07 64.18-37.06z"/><path style="opacity:.15" d="m273.77 54.32-16.34 33.03-1.84-1.07 16.34-33.03 1.84 1.07z"/><path style="opacity:.30000000000000004" d="m257.43 87.35 16.34 14.15-1.84-1.06-16.34-14.16 1.84 1.07z"/><g><path d="M293.61 50.25a.26.26 0 0 1 .34 0 .64.64 0 0 1 .14.45v2.93a1.46 1.46 0 0 1-.14.6.88.88 0 0 1-.34.42l-5.37 3.1v3.78l5-2.89a.27.27 0 0 1 .34 0 .61.61 0 0 1 .14.44v2.93a1.54 1.54 0 0 1-.14.61.9.9 0 0 1-.34.41l-5 2.9v6a1.47 1.47 0 0 1-.14.61 1 1 0 0 1-.34.42l-2.36 1.36a.27.27 0 0 1-.34 0 .61.61 0 0 1-.14-.44V56a1.54 1.54 0 0 1 .14-.61 1 1 0 0 1 .34-.42zM301.79 45.53a6.28 6.28 0 0 1 2.12-.84 2.28 2.28 0 0 1 1.58.24 2.51 2.51 0 0 1 1 1.4 8.12 8.12 0 0 1 .35 2.6 12 12 0 0 1-.56 3.76 9.55 9.55 0 0 1-1.58 3l2.24 5.31a.65.65 0 0 1 .05.27 1.25 1.25 0 0 1-.11.5.75.75 0 0 1-.28.34l-2.44 1.41c-.24.14-.41.15-.51 0a1.23 1.23 0 0 1-.25-.36l-2-4.76-1.65 1v5.91a1.5 1.5 0 0 1-.14.61 1 1 0 0 1-.34.42l-2.35 1.35a.27.27 0 0 1-.35 0 .61.61 0 0 1-.14-.44V49.36a1.5 1.5 0 0 1 .14-.61.94.94 0 0 1 .35-.42zm-2 9.54 2-1.17a3.85 3.85 0 0 0 1.21-1.16 3.4 3.4 0 0 0 .49-1.89c0-.78-.17-1.21-.49-1.32a1.63 1.63 0 0 0-1.25.28l-2 1.17zM318.35 50.88a.26.26 0 0 1 .34 0 .57.57 0 0 1 .15.44v2.93a1.4 1.4 0 0 1-.15.61.84.84 0 0 1-.34.41l-8.5 4.91a.26.26 0 0 1-.34 0 .57.57 0 0 1-.15-.44V41.9a1.37 1.37 0 0 1 .15-.61.87.87 0 0 1 .34-.42l8.36-4.82a.26.26 0 0 1 .34 0 .57.57 0 0 1 .14.44v2.93a1.36 1.36 0 0 1-.14.61 1 1 0 0 1-.34.42l-5.53 3.19v3l5.13-3a.27.27 0 0 1 .35 0 .61.61 0 0 1 .14.44v2.93a1.47 1.47 0 0 1-.14.61.94.94 0 0 1-.35.42l-5.13 3v3.1zM330.34 44a.26.26 0 0 1 .34 0 .57.57 0 0 1 .14.44v2.93a1.32 1.32 0 0 1-.14.6.88.88 0 0 1-.34.42l-8.51 4.91a.26.26 0 0 1-.34 0 .61.61 0 0 1-.14-.44V35a1.5 1.5 0 0 1 .14-.61 1 1 0 0 1 .34-.42l8.37-4.83a.27.27 0 0 1 .34 0 .61.61 0 0 1 .14.44v2.93a1.54 1.54 0 0 1-.14.61.9.9 0 0 1-.34.41l-5.53 3.2v3l5.13-3a.26.26 0 0 1 .34 0 .57.57 0 0 1 .15.44v2.93a1.34 1.34 0 0 1-.15.61.93.93 0 0 1-.34.42l-5.13 3v3.09zM286.89 76.26a2.5 2.5 0 0 1 1.12-.37 1.54 1.54 0 0 1 .87.19 1.46 1.46 0 0 1 .58.6 1.88 1.88 0 0 1 .22.85.65.65 0 0 1-.06.26.35.35 0 0 1-.14.17l-1.24.72a.34.34 0 0 1-.21.06.27.27 0 0 1-.17-.08.36.36 0 0 1-.09-.09.52.52 0 0 0-.46-.13 1.06 1.06 0 0 0-.42.16 2.54 2.54 0 0 0-.34.23 2.76 2.76 0 0 0-.3.29 1.33 1.33 0 0 0-.2.35.91.91 0 0 0-.09.41.33.33 0 0 0 .4.4 2.26 2.26 0 0 0 .56-.08c.24-.06.53-.13.87-.23a2.84 2.84 0 0 1 .91-.11 1 1 0 0 1 .65.24 1.28 1.28 0 0 1 .39.65 3.87 3.87 0 0 1 .13 1.12 4.77 4.77 0 0 1-.22 1.45 6.29 6.29 0 0 1-.61 1.35 6.12 6.12 0 0 1-2.1 2.07 2.84 2.84 0 0 1-1.17.41 1.6 1.6 0 0 1-.92-.16 1.56 1.56 0 0 1-.6-.62 2.14 2.14 0 0 1-.23-1 .65.65 0 0 1 .06-.26.35.35 0 0 1 .14-.17l1.24-.72a.46.46 0 0 1 .21-.07.34.34 0 0 1 .15.07.66.66 0 0 1 .12.12.53.53 0 0 0 .2.15.61.61 0 0 0 .32.06 1.2 1.2 0 0 0 .48-.18 3.53 3.53 0 0 0 .84-.65 1.17 1.17 0 0 0 .34-.8.32.32 0 0 0-.13-.29.63.63 0 0 0-.37-.06 4.44 4.44 0 0 0-.63.12c-.25.08-.56.15-.9.24a1.4 1.4 0 0 1-1.43-.25 2.61 2.61 0 0 1-.45-1.75 4.65 4.65 0 0 1 .19-1.3 6.18 6.18 0 0 1 .53-1.32 6.54 6.54 0 0 1 .85-1.18 4.77 4.77 0 0 1 1.11-.87zM296.41 70.92a.13.13 0 0 1 .18 0 .3.3 0 0 1 .07.23v9.43a.77.77 0 0 1-.07.32.59.59 0 0 1-.18.22l-1.25.71a.14.14 0 0 1-.18 0 .32.32 0 0 1-.07-.23V78l-2.1 1.22v3.57a.72.72 0 0 1-.08.32.46.46 0 0 1-.18.22l-1.24.72a.14.14 0 0 1-.18 0 .3.3 0 0 1-.08-.24V74.4a.76.76 0 0 1 .08-.32.46.46 0 0 1 .18-.22l1.24-.72a.14.14 0 0 1 .18 0 .29.29 0 0 1 .08.23v3.53l2.1-1.21v-3.52a.77.77 0 0 1 .07-.32.51.51 0 0 1 .18-.22zM298.48 79.93a.14.14 0 0 1-.18 0 .33.33 0 0 1-.08-.24v-9.43a.76.76 0 0 1 .08-.32.46.46 0 0 1 .18-.22l1.24-.72a.15.15 0 0 1 .18 0 .33.33 0 0 1 .08.24v9.42a.72.72 0 0 1-.08.32.46.46 0 0 1-.18.22zM304.51 66.24a3.19 3.19 0 0 1 1.09-.42 1.13 1.13 0 0 1 .82.17 1.47 1.47 0 0 1 .53.77 4.35 4.35 0 0 1 .18 1.38 6.91 6.91 0 0 1-.18 1.61 5.66 5.66 0 0 1-.53 1.36 5.13 5.13 0 0 1-.82 1.12 5.25 5.25 0 0 1-1.09.85l-1.22.7v3a.77.77 0 0 1-.07.32.51.51 0 0 1-.18.22l-1.24.68a.13.13 0 0 1-.18 0 .3.3 0 0 1-.08-.23v-9.43a.79.79 0 0 1 .08-.32.51.51 0 0 1 .18-.22zm-1.22 5.27 1.17-.68a1.85 1.85 0 0 0 .92-1.68c0-.41-.09-.65-.26-.73a.7.7 0 0 0-.66.11l-1.17.67zM311.24 62.35a3.35 3.35 0 0 1 1.09-.42 1.16 1.16 0 0 1 .83.17 1.46 1.46 0 0 1 .52.77 4.06 4.06 0 0 1 .19 1.38 6.4 6.4 0 0 1-.19 1.61 5.89 5.89 0 0 1-.52 1.37 5.36 5.36 0 0 1-.83 1.11 4.77 4.77 0 0 1-1.09.85l-1.21.7v3a.79.79 0 0 1-.08.32.46.46 0 0 1-.18.22l-1.24.72a.14.14 0 0 1-.18 0 .3.3 0 0 1-.07-.23v-9.46a.78.78 0 0 1 .07-.33.51.51 0 0 1 .18-.22zM310 67.62l1.17-.68a1.86 1.86 0 0 0 .91-1.68c0-.41-.08-.65-.26-.73a.68.68 0 0 0-.65.11l-1.17.67zM315.27 70.24a.14.14 0 0 1-.18 0A.29.29 0 0 1 315 70v-9.43a.72.72 0 0 1 .08-.32.41.41 0 0 1 .18-.22l1.24-.72a.14.14 0 0 1 .18 0 .32.32 0 0 1 .08.23V69a.76.76 0 0 1-.08.32.46.46 0 0 1-.18.22zM322.64 66c-.11.06-.19.07-.26 0a.39.39 0 0 1-.13-.13l-2.17-3.74v4.93a.71.71 0 0 1-.07.32.46.46 0 0 1-.18.22l-1.24.72a.14.14 0 0 1-.18 0 .28.28 0 0 1-.08-.23v-9.44a.63.63 0 0 1 .08-.32.46.46 0 0 1 .18-.22l1-.57c.11-.06.2-.07.26 0a.39.39 0 0 1 .13.13l2.17 3.74v-4.95a.71.71 0 0 1 .07-.32.6.6 0 0 1 .18-.22l1.25-.72a.15.15 0 0 1 .18 0 .33.33 0 0 1 .07.24v9.42a.74.74 0 0 1-.07.32.46.46 0 0 1-.18.22zM328.16 54.77a2 2 0 0 0-.54.45 2.63 2.63 0 0 0-.35.58 2.73 2.73 0 0 0-.2.65 5.62 5.62 0 0 0-.1.7v2.45a2.61 2.61 0 0 0 .09.59 1 1 0 0 0 .21.42.47.47 0 0 0 .36.16 1 1 0 0 0 .53-.17 2.21 2.21 0 0 0 .47-.35 2.44 2.44 0 0 0 .38-.5 2.84 2.84 0 0 0 .25-.64 2.87 2.87 0 0 0 .1-.8l-.8.46a.15.15 0 0 1-.18 0 .33.33 0 0 1-.07-.24V57a.78.78 0 0 1 .07-.33.51.51 0 0 1 .18-.22l2.3-1.32a.14.14 0 0 1 .18 0 .33.33 0 0 1 .07.24v1.86a6.75 6.75 0 0 1-.23 1.81 7.54 7.54 0 0 1-.62 1.63 7.17 7.17 0 0 1-.93 1.33 4.93 4.93 0 0 1-1.17.95 2.5 2.5 0 0 1-1.21.39A1.42 1.42 0 0 1 326 63a2.06 2.06 0 0 1-.58-.92 4.87 4.87 0 0 1-.23-1.39v-2.6a7.45 7.45 0 0 1 .23-1.66 7.19 7.19 0 0 1 .58-1.59 6.54 6.54 0 0 1 .91-1.39 5.14 5.14 0 0 1 1.22-1 2.7 2.7 0 0 1 1.2-.39 1.63 1.63 0 0 1 .9.24 1.76 1.76 0 0 1 .58.68 2.14 2.14 0 0 1 .22.91.5.5 0 0 1-.05.26.47.47 0 0 1-.15.18l-1.23.67c-.1.05-.17.05-.23 0l-.15-.17a.82.82 0 0 0-.36-.27.89.89 0 0 0-.7.21z" style="fill:#fafafa"/></g><path d="M264.86 94a11.57 11.57 0 0 1-2.84-.36 1 1 0 0 1 .48-2 8.15 8.15 0 0 0 9.78-4.64c1-2.44 1.09-6-2.19-8.11a1 1 0 0 1 1.09-1.7c4.06 2.59 4.41 7.19 3 10.6a10 10 0 0 1-9.32 6.21z" style="fill:#37474f"/></g><g><path d="M97.58 371.21a5.58 5.58 0 0 0-.48 2.9 13.33 13.33 0 0 1 .48 3.95c-.16 2-.59 2.61-.74 4a5.73 5.73 0 0 0 .85 4c.86 1.29 2.78 2.32 6.31 2.06 2.86-.21 4.07-1.81 4.07-3.5z" style="fill:#263238"/><path d="M99 369.52c1.8 1 4.74-.17 6.93-1.34l2.3-13.6-9.95-2.21z" style="fill:#ffa8a7"/><path d="M98.26 367.1a6.61 6.61 0 0 0-.13 1.12c-.08.66-.26 1.3-.39 2 0 .17-.07.35-.1.52a20.85 20.85 0 0 0 .13 4 22.08 22.08 0 0 1-.65 4.7c-.54 2.81-.53 4.56 2 6.39a6.56 6.56 0 0 0 4.32 1.05c1.23 0 2.93-.33 3.55-1a3 3 0 0 0 1-1.7c0-3-1.21-6.35-1.53-9.29a14.83 14.83 0 0 1-.15-2.39c.07-1 .37-2 .44-3a1.66 1.66 0 0 0-.17-1.08 1.78 1.78 0 0 0-1.34-.54c-1.3-.12-2.6-.2-3.91-.25a1.16 1.16 0 0 0-.88.22c-.24.23-.23.62-.29.95s-.29.72-.62.67a.55.55 0 0 1-.41-.47c0-.22-.2-1.93-.2-2.15-.06.02-.52-.04-.67.25z" style="fill:#37474f"/><path d="M108.22 383.67a3.58 3.58 0 0 0-.48-1.78c-1.45-2.6-8.73-2.42-10.91.31a4 4 0 0 0 1.84 3.71c1.26.94 3.25 1.07 4.88 1a6.32 6.32 0 0 0 3.56-1.1 2.45 2.45 0 0 0 1.11-2.14z" style="fill:#455a64"/><path d="M117.72 369.92c1.52 3.29 3.91 2 7-.14l1.51-19.69-9.54 2.58z" style="fill:#ffa8a7"/><path d="M137.3 377.43a2.19 2.19 0 0 1-.09 1.62c-.23.47-2.71 1.87-6.05 1.65a14.07 14.07 0 0 1-6.93-2.42 8 8 0 0 0-4.26-1.1c-1.66-.09-3.83-.92-4.2-1.7a3.69 3.69 0 0 1 .06-2.11z" style="fill:#263238"/><path d="M125.59 367a7 7 0 0 1 .32.75 5.88 5.88 0 0 0 1.75 2.37 18.89 18.89 0 0 0 3.62 2.15c.8.4 1.66.54 2.48.86a14.65 14.65 0 0 1 2.67 1.3 2.42 2.42 0 0 1 0 4 11.79 11.79 0 0 1-8.25.57c-1.94-.55-4.09-2.62-6.64-2.82-1.62-.13-4.68-.58-5.72-1.81-.33-1.79.13-2.28.55-3.77a12.5 12.5 0 0 0 .41-2.58c0-.46-.23-1.79.74-1.91v1s.17.34 1.17.56c.32.07.56.5.72.9s.25.69.57.7a.61.61 0 0 0 .52-.37 4.79 4.79 0 0 0 .21-.64 2.57 2.57 0 0 1 1.58-1.44 7.79 7.79 0 0 1 1.79-.3c.47-.05.85-.23 1.25.17a1.5 1.5 0 0 1 .26.31z" style="fill:#37474f"/><path d="M116.59 369.54c-.07.37-.14.73-.24 1.09-.42 1.49-.88 2-.55 3.77.8.94 2.79 1.43 4.4 1.66.55-3.06-1.36-5.35-3.61-6.52zM99.71 291.37c-.42 12.75-.24 17.86-.19 41.31a40.5 40.5 0 0 0-1.72 11.08c-.16 5.87.46 18 .46 18s4.86 3 9 .62c0 0 3.3-17.85 4.57-26 1.11-7.19 2.25-17.71 2.25-17.71l1.59 14.95a59.33 59.33 0 0 0-.27 11.36c.27 3.84 1.32 17.38 1.32 17.38s4.4 3.07 9 .61c0 0 2.16-26.94 2.23-30.43.07-4-1.48-44.41-1.48-44.41z" style="fill:#455a64"/><path d="m114.05 318.64 2.41-13.92s5.23-.46 8.13-3.38c0 0-.52 2.87-7.1 4.58l-2.41 14 .56 13.63z" style="fill:#263238"/><path d="M136.49 374.35a13.48 13.48 0 0 0-2.36-1 5.72 5.72 0 0 0-5.29 5.88 11 11 0 0 0 7.61-.65 2.62 2.62 0 0 0 .04-4.23z" style="fill:#455a64"/><g><path d="M118.12 258.7c2.25-.06 6.45-.11 9.37 3.67 2.06 2.66 7.69 9.07 10.86 13.28 2.25-2.23 7.69-7.63 8.6-9.23a25.7 25.7 0 0 0 2.1-4.72 15.78 15.78 0 0 0 .77-2.95A16 16 0 0 0 150 255c0-1.12 1.66-.51 2.26 1.29a9.94 9.94 0 0 1 .41 3.07l2.73-1.25c1-.43 4.13-1.45 4.39.31a4.26 4.26 0 0 0 .08 1.19 3 3 0 0 0 .33.46 2 2 0 0 1 .2 2 1.55 1.55 0 0 0-.19.92 2.64 2.64 0 0 1 0 1 4.3 4.3 0 0 1-.41.72 3 3 0 0 0-.3 1 3.61 3.61 0 0 1-.26 1c-.36.77-1.3.93-2 1.17a34.55 34.55 0 0 0-3.28 1.2c-1.76 1.11-6.63 9.45-11.49 14.76-1.67 1.82-3.15 2.95-4.69 2.71-1.25-.05-2.76-1.22-4.21-2.54-4.63-4.18-12.11-12-12.11-12-3.12-3.79-3.76-10.74-3.34-13.31z" style="fill:#ffa8a7"/><path d="M118.12 258.7a11.13 11.13 0 0 1 6.34 1c2 1 2.4 1.63 4.29 3.85s4.52 5.56 4.52 5.56-1.49 6.32-7.64 7.89l-8.1-9.41z" style="fill:#455a64"/><path d="M153.89 259.59c-1 .31-1.23 1-1.19 2.36 0 .83-.21 2.37-1.11 3a2.16 2.16 0 0 0 1.17-.52c.43-.44.54-.49.78-.24a1.66 1.66 0 0 0 .63.35 1.08 1.08 0 0 0-.09 1.29c.44.71 2.38.71 4-.13 0 0-2.58.83-3.19 0s.76-1.86 1.78-2.15c0 0-2.5.62-2.89-.19s.64-1.45 2.11-1.84c0 0-2.06.39-2.42-.3a1.27 1.27 0 0 1 .42-1.63z" style="fill:#f28f8f"/><path d="M126 268.44c-.56-4.09-1.1-9.59-7.44-9.84l-8.24-.39c-2 .52-11 3.13-11 3.13v13s.3 5.43.67 12.28c0 0-.74 8-.67 11.11 5.86 3.71 21.41 2.65 27.59-1.08.29-5.65-.32-24.16-.91-28.21zM115.89 245.22l-12.89-.67c-2.45 1.94-7 6-7 7.11v.77a.16.16 0 0 0 0 .09c.47.86 2.13 1.36 4.69 1.35 3 0 7.75-.39 9-1.48 1.83-1.65 6.21-6.44 6.21-6.44h-.65z" style="fill:#0ecaff"/><path d="m115.89 245.22-12.89-.67c-2.45 1.94-7 6-7 7.11v.77a.16.16 0 0 0 0 .09c.47.86 2.13 1.36 4.69 1.35 3 0 7.75-.39 9-1.48 1.83-1.65 6.21-6.44 6.21-6.44h-.65z" style="opacity:.2"/><path d="M103 245.27c-2.57 2-7.43 6.39-6.95 7.25s2.13 1.36 4.69 1.35c3 0 7.75-.39 9-1.48 1.83-1.65 6.21-6.44 6.21-6.44z" style="fill:#0ecaff"/><path d="M103 245.27c-2.57 2-7.43 6.39-6.95 7.25s2.13 1.36 4.69 1.35c3 0 7.75-.39 9-1.48 1.83-1.65 6.21-6.44 6.21-6.44z" style="opacity:.4"/><path d="M103 245.27c0 .38 1.3 1.13 1.3 1.13l-.42-2.26z" style="fill:#0ecaff"/><path d="M103 245.27c0 .38 1.3 1.13 1.3 1.13l-.42-2.26z" style="opacity:.30000000000000004"/><path d="M123.35 236.81a8.44 8.44 0 0 0-2.6-2.91c-1.91-1.32-4.38-1.53-6.7-1.44a16.52 16.52 0 0 0-4.37.67 8.81 8.81 0 0 0-5.79 5.65 11.89 11.89 0 0 0 1.21 10c.81 1.27 1.33 2.65 2 4 .57 1.11 1 2 1 2l-.19-3.51 3.34-.29a13 13 0 0 1 2.91-.16 3.85 3.85 0 0 0 2.54-.8 39.82 39.82 0 0 0 4.51-3.34 12.64 12.64 0 0 0 2.43-2.58 5.09 5.09 0 0 0 .42-.71 4.22 4.22 0 0 0 .44-1.34 7.75 7.75 0 0 0 .09-2 9.33 9.33 0 0 0-.59-2 12.73 12.73 0 0 0-.65-1.24z" style="fill:#263238"/><path d="M114.68 239.71a17.57 17.57 0 0 1-2.25-.45h-.21a5.05 5.05 0 0 1-3.71 3.36 12.86 12.86 0 0 1 .1 4.24 2.63 2.63 0 0 1-.32.86 1.06 1.06 0 0 1-.75.47c-.41 0-.58-.22-.71-.54a9 9 0 0 0-.62-1.19 2.1 2.1 0 0 0-.36-.46 2 2 0 0 0-3.33.68 4.24 4.24 0 0 0 2.23 5.15c2.57.71 3.12-1 3.12-1l.5 9.15c1.39 1.45 6.67 3.45 8.19 5.17.68-1.17 2.63-4.05.06-5.68l-.1-2.79a16.12 16.12 0 0 0 3.43.06c1.86-.35 2.78-1.92 3.28-4 .8-3.28.7-9.52.45-12a19.36 19.36 0 0 0-.39-2.63c.08.25-1.76 1-2 1a11.23 11.23 0 0 1-2.56.54 23.7 23.7 0 0 1-3 .11 9.28 9.28 0 0 1-1.05-.05z" style="fill:#ffa8a7"/><path d="M116.52 256.6a32.57 32.57 0 0 1-5.68-1.43 4.86 4.86 0 0 1-2.08-1.93 6.66 6.66 0 0 0 1.22 2.31c1.11 1.33 6.57 1.93 6.57 1.93z" style="fill:#f28f8f"/><path d="M114.73 245.75a.78.78 0 1 1-.8-.78.78.78 0 0 1 .8.78zM113.68 241.92l-2 .59a1.06 1.06 0 0 1 .7-1.3 1 1 0 0 1 1.3.71z" style="fill:#263238"/><path d="m115 251.19 2.88 1a1.5 1.5 0 0 1-1.9 1 1.58 1.58 0 0 1-.98-2z" style="fill:#b16668"/><path d="M115.34 251.79a1.15 1.15 0 0 0-.37.06 1.56 1.56 0 0 0 1 1.31 1.41 1.41 0 0 0 .64.07.45.45 0 0 0 0-.11 1.32 1.32 0 0 0-1.27-1.33z" style="fill:#f28f8f"/><path d="m123 242.35-1.87-.71a1 1 0 0 1 1.26-.57 1 1 0 0 1 .61 1.28z" style="fill:#263238"/><path d="m110.86 243.09-6.55 2.25a2.35 2.35 0 0 1 1.88.95l4.64-1.76z" style="fill:#37474f"/><path d="M121.88 245.62a.78.78 0 1 1-.81-.79.8.8 0 0 1 .81.79z" style="fill:#263238"/><path d="m125.4 242.77-.42-.05a12.77 12.77 0 0 0-4.29.22c-1.37.45-1.86.93-2.62.95s-1.31-.45-2.76-.85a14.16 14.16 0 0 0-4.57 0c-.16 0-.32 0-.46.06a.76.76 0 0 0-.53.78 1.62 1.62 0 0 0 .43.89 1.28 1.28 0 0 1 .14.36 15.08 15.08 0 0 0 .51 2.47 3.14 3.14 0 0 0 .57.89 2.48 2.48 0 0 0 .3.25l.17.12a2.69 2.69 0 0 0 .51.24H112.74a3.06 3.06 0 0 0 .45.06h.44a3.24 3.24 0 0 0 3.16-1.91c.49-.95.39-2.27 1.26-2.29h.16c.63.14.53 1.36.92 2.23a3.54 3.54 0 0 0 .6.95.93.93 0 0 0 .14.14l.08.07a.27.27 0 0 0 .08.07l.07.05.08.06h.11a2.93 2.93 0 0 0 .74.29h.07a3.67 3.67 0 0 0 .91.08 2.76 2.76 0 0 0 2.69-1.77 16 16 0 0 0 .58-2.5.79.79 0 0 1 .17-.33 1.75 1.75 0 0 0 .41-.92c.03-.23-.22-.59-.46-.61zm-9.08 3.68a2.94 2.94 0 0 1-.67 1.32 2.7 2.7 0 0 1-2.06.79 2.2 2.2 0 0 1-2-.92l-.06-.1a790082301798.33 790082301798.33 0 0 0-.1-.18.25.25 0 0 1 0-.07v-.07a.17.17 0 0 1 0-.05.42.42 0 0 1 0-.1c0-.09-.07-.18-.1-.27s0-.11 0-.16a1.68 1.68 0 0 1-.06-.27v-.1c-.14-.65-.28-1.94 0-2.24a3.76 3.76 0 0 1 2.59-.5h.15c.21 0 .42.06.63.1l.25.06a5 5 0 0 1 .62.19l.19.08.2.1h.08a1.34 1.34 0 0 1 .41.34 3 3 0 0 1-.07 2.05zm8.17-.43a3 3 0 0 1-1.36 2.13 2.66 2.66 0 0 1-1 .25 2.18 2.18 0 0 1-2.07-1v-.13a.54.54 0 0 0-.05-.11V246.93c0-.05 0 0 0 0a2.59 2.59 0 0 1-.12-.48 3.17 3.17 0 0 1 .08-2 4 4 0 0 1 2.3-1l.65-.06h.74l.32.05H124.27l.16.06a1.05 1.05 0 0 1 .34.22c.06.34-.13 1.64-.28 2.28z" style="fill:#263238"/><path d="m117.81 245.08.15 5.45 3-.88-2.8-4.65a.78.78 0 0 0-.35.08z" style="fill:#f28f8f"/><path d="M102.37 242.15a11 11 0 0 0 .62 3.19 4 4 0 0 1 .76-.92 19.18 19.18 0 0 1 5.74-3.44 22.54 22.54 0 0 1 15.09-.89 10.41 10.41 0 0 0-.66-2.72c-1.75-4.28-5.15-6.47-10.49-5.81-6.26.79-11.36 4.38-11.06 10.59z" style="fill:#0ecaff"/><path d="M113.77 238.08a16.44 16.44 0 0 1 6.25-.57 6.56 6.56 0 0 0 1.28-1.51c.49-.81.3-1.83-.19-2s-.5.43-2.33 1.38a3.08 3.08 0 0 0 .12-1.87c-.32-.74-.93.62-2.28 1.52s-2.71 1.38-2.85 3.05z" style="fill:#263238"/><path d="M116.56 265.07c-1-.63-3.22-1.72-4.36-.51s-1.74 1.56-2.49 1.34-3.12-2.66-4-4c-1-1.53-.76-2.15-.76-2.15l1.87-2.46c.52-.69.69-.77 1.35-.82l.09 1.82a3.45 3.45 0 0 0 1.41 2.24c1.86 1.27 5.52 1.61 6.89 4.54zM116.56 265.07c.61-.57 2-2 3-1.69s1.46.89 1.48.35a10.84 10.84 0 0 0-1.65-3.63 6.27 6.27 0 0 0-2.79-2.39l.06 1.68s1.2 1.52 1.06 2.43-1.04 2.36-1.16 3.25z" style="fill:#455a64"/><g><path style="fill:#263238" d="m142.64 280.67-21.71 3.72-8.58 25.77 20.68-4.08 9.61-25.41z"/><path d="M124.16 299.79a5 5 0 0 1-3.59 3.52 10.9 10.9 0 0 1-5.78-.48l.72-2.15zM136.09 283.93l.25-.79c.13-.44-1.11-.57-2.78-.29l-3.2.54c-1.67.28-3.13.86-3.27 1.3l-.24.79z" style="opacity:.15"/><path d="M137.83 281c.08-.27-.41-.39-1.11-.26l-1.27.23s.52-1.72-2.28-1.35a4.31 4.31 0 0 0-3.57 2.31l-1.36.26a2.45 2.45 0 0 0-1.55.74l-.2.49 11.18-1.91s.07-.23.16-.51z" style="fill:#0ecaff"/><path d="M137.83 281c.08-.27-.41-.39-1.11-.26l-1.27.23s.52-1.72-2.28-1.35a4.31 4.31 0 0 0-3.57 2.31l-1.36.26a2.45 2.45 0 0 0-1.55.74l-.2.49 11.18-1.91s.07-.23.16-.51z" style="opacity:.30000000000000004"/><path d="M127.22 284.77c.11-.36 1.15-.82 2.45-1.13v-.12c.11-.39 0-.63-.83-.5v-.31l7.74-1.27-.34.31c-1 .16-1.45.25-1.66.93l-.05.15c1.21-.11 2 0 1.92.4l-.25.79-9.2 1.55z" style="fill:#0ecaff"/><path d="M127.22 284.77c.11-.36 1.15-.82 2.45-1.13v-.12c.11-.39 0-.63-.83-.5v-.31l7.74-1.27-.34.31c-1 .16-1.45.25-1.66.93l-.05.15c1.21-.11 2 0 1.92.4l-.25.79-9.2 1.55z" style="opacity:.4"/><path d="M117.09 295.93c2.62.95 5.57.71 8.32.8.26 0 .58 0 .69.29a.58.58 0 0 1-.24.62 2.72 2.72 0 0 0-.54.47c-.21.31-.13.72-.19 1.09a2.81 2.81 0 0 1-.86 1.38 6.49 6.49 0 0 1-1.38 1.24 9.68 9.68 0 0 1-6.19.73 20.7 20.7 0 0 1-3.77-1.21c-1.16-.46-8.19-2.72-9-3-6.2-2.33-14.74-5.21-15.18-8.18s2.13-12.75 3.43-20.26c1.24-7.13 3.89-8 7.91-8.73A13.41 13.41 0 0 1 101 275l-2.61 11.59A135.22 135.22 0 0 0 111 293.8a5 5 0 0 0 2.48-.21 10.77 10.77 0 0 1 4.55-.35" style="fill:#ffa8a7"/><path d="M100.24 261.08C96 261.56 94 262.6 93 266s-2.63 11.48-2.63 11.48c2.76 2.55 6.51 3 9.65 3.06l1.41-5.67c1.04-2.27 2.94-8.82-1.19-13.79z" style="fill:#455a64"/></g></g></g></svg>